<svg xmlns="http://www.w3.org/2000/svg" viewBox="0 0 800 600">
  <!-- 背景 -->
  <rect width="800" height="600" fill="#f5f5f5"/>
  
  <!-- ヘッダー -->
  <rect x="0" y="0" width="800" height="60" fill="#4a69bd"/>
  <text x="30" y="38" font-family="Arial" font-size="24" fill="white">🎸 Chordify</text>
  
  <!-- ナビゲーションメニュー -->
  <rect x="0" y="60" width="800" height="40" fill="#e5e7eb"/>
  <text x="30" y="85" font-family="Arial" font-size="16" fill="#777">コード一覧</text>
  <text x="150" y="85" font-family="Arial" font-size="16" fill="#777">ランダム練習</text>
  <text x="290" y="85" font-family="Arial" font-size="16" fill="#777">学習進捗</text>
  <text x="400" y="85" font-family="Arial" font-size="16" fill="#4a69bd" font-weight="bold">タグ管理</text>
  
  <!-- タイトル -->
  <text x="50" y="140" font-family="Arial" font-size="24" font-weight="bold" fill="#333">タグ管理</text>
  
  <!-- 新規タグ追加フォーム -->
  <rect x="50" y="160" width="700" height="80" rx="5" fill="white" stroke="#ccc"/>
  <text x="70" y="190" font-family="Arial" font-size="16" font-weight="bold" fill="#333">新規タグ追加</text>
  <rect x="70" y="200" width="300" height="30" rx="5" fill="white" stroke="#ccc"/>
  <text x="80" y="220" font-family="Arial" font-size="14" fill="#777">タグ名を入力</text>
  <rect x="380" y="200" width="100" height="30" rx="5" fill="#4a69bd"/>
  <text x="415" y="220" font-family="Arial" font-size="14" fill="white" text-anchor="middle">追加</text>
  
  <!-- タグリスト -->
  <rect x="50" y="260" width="700" height="320" rx="5" fill="white" stroke="#ccc"/>
  <text x="70" y="290" font-family="Arial" font-size="16" font-weight="bold" fill="#333">登録済みタグ一覧</text>
  
  <!-- タグテーブルヘッダー -->
  <rect x="70" y="310" width="660" height="40" rx="0" fill="#f1f5f9"/>
  <text x="100" y="335" font-family="Arial" font-size="14" font-weight="bold" fill="#333">タグ名</text>
  <text x="400" y="335" font-family="Arial" font-size="14" font-weight="bold" fill="#333">関連コード数</text>
  <text x="600" y="335" font-family="Arial" font-size="14" font-weight="bold" fill="#333">操作</text>
  
  <!-- タグ行1 -->
  <rect x="70" y="350" width="660" height="40" rx="0" fill="white" stroke="#e2e8f0" stroke-width="1"/>
  <text x="100" y="375" font-family="Arial" font-size="14" fill="#333">基本</text>
  <text x="400" y="375" font-family="Arial" font-size="14" fill="#333">12</text>
  <rect x="600" y="355" width="60" height="30" rx="5" fill="#f5f5f5" stroke="#ccc"/>
  <text x="615" y="375" font-family="Arial" font-size="14" fill="#333">編集</text>
  <rect x="670" y="355" width="60" height="30" rx="5" fill="#f5f5f5" stroke="#ccc"/>
  <text x="685" y="375" font-family="Arial" font-size="14" fill="#ef4444">削除</text>
  
  <!-- タグ行2 -->
  <rect x="70" y="390" width="660" height="40" rx="0" fill="#f8fafc" stroke="#e2e8f0" stroke-width="1"/>
  <text x="100" y="415" font-family="Arial" font-size="14" fill="#333">メジャー</text>
  <text x="400" y="415" font-family="Arial" font-size="14" fill="#333">8</text>
  <rect x="600" y="395" width="60" height="30" rx="5" fill="#f5f5f5" stroke="#ccc"/>
  <text x="615" y="415" font-family="Arial" font-size="14" fill="#333">編集</text>
  <rect x="670" y="395" width="60" height="30" rx="5" fill="#f5f5f5" stroke="#ccc"/>
  <text x="685" y="415" font-family="Arial" font-size="14" fill="#ef4444">削除</text>
  
  <!-- タグ行3 -->
  <rect x="70" y="430" width="660" height="40" rx="0" fill="white" stroke="#e2e8f0" stroke-width="1"/>
  <text x="100" y="455" font-family="Arial" font-size="14" fill="#333">マイナー</text>
  <text x="400" y="455" font-family="Arial" font-size="14" fill="#333">6</text>
  <rect x="600" y="435" width="60" height="30" rx="5" fill="#f5f5f5" stroke="#ccc"/>
  <text x="615" y="455" font-family="Arial" font-size="14" fill="#333">編集</text>
  <rect x="670" y="435" width="60" height="30" rx="5" fill="#f5f5f5" stroke="#ccc"/>
  <text x="685" y="455" font-family="Arial" font-size="14" fill="#ef4444">削除</text>
  
  <!-- タグ行4 -->
  <rect x="70" y="470" width="660" height="40" rx="0" fill="#f8fafc" stroke="#e2e8f0" stroke-width="1"/>
  <text x="100" y="495" font-family="Arial" font-size="14" fill="#333">7th</text>
  <text x="400" y="495" font-family="Arial" font-size="14" fill="#333">4</text>
  <rect x="600" y="475" width="60" height="30" rx="5" fill="#f5f5f5" stroke="#ccc"/>
  <text x="615" y="495" font-family="Arial" font-size="14" fill="#333">編集</text>
  <rect x="670" y="475" width="60" height="30" rx="5" fill="#f5f5f5" stroke="#ccc"/>
  <text x="685" y="495" font-family="Arial" font-size="14" fill="#ef4444">削除</text>
  
  <!-- タグ行5 -->
  <rect x="70" y="510" width="660" height="40" rx="0" fill="white" stroke="#e2e8f0" stroke-width="1"/>
  <text x="100" y="535" font-family="Arial" font-size="14" fill="#333">お気に入り</text>
  <text x="400" y="535" font-family="Arial" font-size="14" fill="#333">7</text>
  <rect x="600" y="515" width="60" height="30" rx="5" fill="#f5f5f5" stroke="#ccc"/>
  <text x="615" y="535" font-family="Arial" font-size="14" fill="#333">編集</text>
  <rect x="670" y="515" width="60" height="30" rx="5" fill="#f5f5f5" stroke="#ccc"/>
  <text x="685" y="535" font-family="Arial" font-size="14" fill="#ef4444">削除</text>
  
  <!-- ページネーション -->
  <rect x="300" y="550" width="200" height="30" rx="5" fill="transparent"/>
  <circle cx="350" cy="565" r="15" fill="#4a69bd"/>
  <text x="350" y="570" font-family="Arial" font-size="14" fill="white" text-anchor="middle">1</text>
  <circle cx="380" cy="565" r="15" fill="#f8fafc" stroke="#ccc"/>
  <text x="380" y="570" font-family="Arial" font-size="14" fill="#333" text-anchor="middle">2</text>
  <circle cx="410" cy="565" r="15" fill="#f8fafc" stroke="#ccc"/>
  <text x="410" y="570" font-family="Arial" font-size="14" fill="#333" text-anchor="middle">3</text>
  <circle cx="440" cy="565" r="15" fill="#f8fafc" stroke="#ccc"/>
  <text x="440" y="570" font-family="Arial" font-size="14" fill="#333" text-anchor="middle">></text>
</svg>